<svg width="26" height="26" viewBox="0 0 26 26" fill="none" xmlns="http://www.w3.org/2000/svg">
<rect x="0.387817" y="0.728088" width="24.8737" height="24.8737" rx="4.14562" fill="white" fill-opacity="0.5"/>
<path fill-rule="evenodd" clip-rule="evenodd" d="M7.83779 6.7648C6.46532 7.29248 5.37219 8.59961 5.37219 10.3315C5.37219 11.7015 5.98975 13.0148 6.97872 14.2827C7.96788 15.5508 9.28778 16.7216 10.6062 17.8005C11.143 18.2399 11.5016 18.5319 11.8003 18.7207C12.0844 18.9003 12.2486 18.9427 12.3879 18.9427C12.5271 18.9427 12.6913 18.9003 12.9754 18.7207C13.2741 18.5319 13.6327 18.2399 14.1695 17.8005C15.4879 16.7216 16.8078 15.5508 17.797 14.2827C18.786 13.0148 19.4035 11.7015 19.4035 10.3315C19.4035 8.59961 18.3104 7.29248 16.9379 6.7648C15.5779 6.24191 13.9779 6.49331 12.8945 7.87889C12.7738 8.03321 12.5865 8.12373 12.3879 8.12373C12.1892 8.12373 12.0019 8.03321 11.8812 7.87889C10.7978 6.49331 9.19777 6.24191 7.83779 6.7648ZM12.3879 6.5602C10.9451 5.18149 9.00029 4.97735 7.37111 5.60373C5.55464 6.30213 4.09662 8.04204 4.09662 10.3315C4.09662 12.0795 4.88498 13.6553 5.96458 15.0394C7.04399 16.4232 8.45534 17.667 9.78761 18.7573L9.81779 18.782C10.3165 19.1902 10.7352 19.5328 11.1078 19.7684C11.5025 20.018 11.9094 20.1902 12.3879 20.1902C12.8663 20.1902 13.2732 20.018 13.6679 19.7684C14.0405 19.5328 14.4592 19.1902 14.9579 18.782L14.9881 18.7573C16.3204 17.667 17.7317 16.4232 18.8111 15.0394C19.8907 13.6553 20.6791 12.0795 20.6791 10.3315C20.6791 8.04204 19.2211 6.30213 17.4046 5.60373C15.7754 4.97735 13.8306 5.18149 12.3879 6.5602Z" fill="#717171"/>
</svg>
